<svg id="Layer_1" data-name="Layer 1" xmlns="http://www.w3.org/2000/svg" viewBox="0 0 1200 1200"><defs><style>.cls-1{fill:#ef4444;}.cls-2{fill:#eab308;}.cls-3{fill:#111827;}.cls-4{fill:none;}.cls-5{fill:#3b82f6;}</style></defs><path class="cls-1" d="M1140,996a36,36,0,0,1-36,36c-46,0-75.94,15-110.61,32.33C956.27,1082.93,914.19,1104,852,1104c-62.47,0-104.76-21.15-142.07-39.79C675.37,1046.93,645.52,1032,600,1032s-75.37,14.93-109.93,32.21C452.77,1082.85,410.48,1104,348,1104c-62.2,0-104.27-21.07-141.39-39.67C171.94,1047,142,1032,96,1032a36,36,0,0,1,0-72c63,0,105.39,21.22,142.8,40,34.39,17.19,64,32,109.2,32,45.49,0,75.3-14.93,109.86-32.18C495.17,981.14,537.49,960,600,960s104.83,21.15,142.14,39.82C776.7,1017.07,806.51,1032,852,1032c45.18,0,74.81-14.85,109.2-32,37.41-18.74,79.77-40,142.8-40A36,36,0,0,1,1140,996Z"/><path class="cls-2" d="M1140,816a36,36,0,0,1-36,36c-46,0-75.94,15-110.61,32.33C956.27,902.93,914.19,924,852,924c-62.47,0-104.76-21.15-142.07-39.79C675.37,866.93,645.52,852,600,852s-75.37,14.93-109.93,32.21C452.77,902.86,410.48,924,348,924c-62.2,0-104.27-21.07-141.39-39.67C171.94,867,142,852,96,852a36,36,0,0,1,0-72c63,0,105.39,21.22,142.8,40,34.39,17.19,64,32,109.2,32,45.49,0,75.3-14.93,109.86-32.18C495.17,801.14,537.49,780,600,780s104.83,21.15,142.14,39.82C776.7,837.07,806.51,852,852,852c45.18,0,74.81-14.85,109.2-32,37.41-18.74,79.77-40,142.8-40A36,36,0,0,1,1140,816Z"/><path class="cls-3" d="M1104,600c-63,0-105.39,21.22-142.8,40-34.39,17.19-64,32-109.2,32-47.63,0-77.2-15.91-119.61-36.9-6.18-39.85-11.5-80.54-15.43-121.87,184.39-47.4,315-203.15,315-381.23a36,36,0,0,0-61.47-25.45c-20.28,20.27-69.61,25.12-121.85,30.24C768.92,144.61,672.05,154.1,600.05,222,528.4,154.18,431.62,144.75,351.91,137c-52.45-5.12-102-10-122.48-30.41A36,36,0,0,0,168,132c0,178.08,130.64,333.83,315,381.24-3.93,41.33-9.25,82-15.43,121.87-42.43,21-72,36.89-119.6,36.89-45.18,0-74.81-14.85-109.2-32C201.39,621.22,159,600,96,600a36,36,0,0,0,0,72c46,0,75.94,15,110.61,32.33C243.73,722.93,285.81,744,348,744c62.47,0,104.76-21.14,142.07-39.79,36-18,66.39-32.21,109.93-32.21,43.18,0,73.92,14.2,109.93,32.21C747.23,722.86,789.52,744,852,744c62.2,0,104.27-21.07,141.39-39.67C1028.06,687,1058,672,1104,672a36,36,0,0,0,0-72ZM671.86,449.46a36,36,0,0,0-29.43,38.32c3.21,39.75,7.49,79.27,12.73,118.09a261.82,261.82,0,0,0-110.32,0c5.25-38.81,9.53-78.33,12.73-118.09a36,36,0,0,0-29.42-38.32c-144-26.28-254-129.27-281.5-255.6,29.81,8.09,63.52,11.37,98.29,14.76,84.83,8.28,172.51,16.84,226.2,88.87A35.92,35.92,0,0,0,599.93,312H600a36,36,0,0,0,28.79-14.4c54.18-72.23,142-80.84,226.93-89.17,34.52-3.37,68-6.66,97.63-14.66-27.42,126.41-137.43,229.42-281.5,255.71Z"/><path class="cls-4" d="M467.6,635.11a205.67,205.67,0,0,1,77.24-29.24"/><path class="cls-5" d="M1104,600c-63,0-105.39,21.22-142.8,40-34.39,17.19-64,32-109.2,32-47.63,0-77.2-15.91-119.61-36.9a265.24,265.24,0,0,0-264.79,0c-42.43,21-72,36.89-119.6,36.89-45.18,0-74.81-14.85-109.2-32C201.39,621.22,159,600,96,600a36,36,0,0,0,0,72c46,0,75.94,15,110.61,32.33C243.73,722.93,285.81,744,348,744c62.47,0,104.76-21.14,142.07-39.79,36-18,66.39-32.21,109.93-32.21,43.18,0,73.92,14.2,109.93,32.21C747.23,722.86,789.52,744,852,744c62.2,0,104.27-21.07,141.39-39.67C1028.06,687,1058,672,1104,672c4.75,0,36-12.93,36-36C1140,620.31,1125.34,604.31,1104,600Z"/></svg>