<svg id="Layer_1" data-name="Layer 1" xmlns="http://www.w3.org/2000/svg" viewBox="0 0 4754.54 1007.99"><defs><style>.cls-1{fill:#ef4444;}.cls-2{fill:#eab308;}.cls-3{fill:#111827;}.cls-4{fill:none;}.cls-5{fill:#3b82f6;}</style></defs><path class="cls-1" d="M1140,996a36,36,0,0,1-36,36c-46,0-75.94,15-110.61,32.33C956.27,1082.93,914.19,1104,852,1104c-62.47,0-104.76-21.15-142.07-39.79C675.37,1046.93,645.52,1032,600,1032s-75.37,14.93-109.93,32.21C452.77,1082.85,410.48,1104,348,1104c-62.2,0-104.27-21.07-141.39-39.67C171.94,1047,142,1032,96,1032a36,36,0,0,1,0-72c63,0,105.39,21.22,142.8,40,34.39,17.19,64,32,109.2,32,45.49,0,75.3-14.93,109.86-32.18C495.17,981.14,537.49,960,600,960s104.83,21.15,142.14,39.82C776.7,1017.07,806.51,1032,852,1032c45.18,0,74.81-14.85,109.2-32,37.41-18.74,79.77-40,142.8-40A36,36,0,0,1,1140,996Z" transform="translate(-60 -96.01)"/><path class="cls-2" d="M1140,816a36,36,0,0,1-36,36c-46,0-75.94,15-110.61,32.33C956.27,902.93,914.19,924,852,924c-62.47,0-104.76-21.15-142.07-39.79C675.37,866.93,645.52,852,600,852s-75.37,14.93-109.93,32.21C452.77,902.86,410.48,924,348,924c-62.2,0-104.27-21.07-141.39-39.67C171.94,867,142,852,96,852a36,36,0,0,1,0-72c63,0,105.39,21.22,142.8,40,34.39,17.19,64,32,109.2,32,45.49,0,75.3-14.93,109.86-32.18C495.17,801.14,537.49,780,600,780s104.83,21.15,142.14,39.82C776.7,837.07,806.51,852,852,852c45.18,0,74.81-14.85,109.2-32,37.41-18.74,79.77-40,142.8-40A36,36,0,0,1,1140,816Z" transform="translate(-60 -96.01)"/><path class="cls-3" d="M1104,600c-63,0-105.39,21.22-142.8,40-34.39,17.19-64,32-109.2,32-47.63,0-77.2-15.91-119.61-36.9-6.18-39.85-11.5-80.54-15.43-121.87,184.39-47.4,315-203.15,315-381.23a36,36,0,0,0-61.47-25.45c-20.28,20.27-69.61,25.12-121.85,30.24C768.92,144.61,672.05,154.1,600.05,222,528.4,154.18,431.62,144.75,351.91,137c-52.45-5.12-102-10-122.48-30.41A36,36,0,0,0,168,132c0,178.08,130.64,333.83,315,381.24-3.93,41.33-9.25,82-15.43,121.87-42.43,21-72,36.89-119.6,36.89-45.18,0-74.81-14.85-109.2-32C201.39,621.22,159,600,96,600a36,36,0,0,0,0,72c46,0,75.94,15,110.61,32.33C243.73,722.93,285.81,744,348,744c62.47,0,104.76-21.14,142.07-39.79,36-18,66.39-32.21,109.93-32.21,43.18,0,73.92,14.2,109.93,32.21C747.23,722.86,789.52,744,852,744c62.2,0,104.27-21.07,141.39-39.67C1028.06,687,1058,672,1104,672a36,36,0,0,0,0-72ZM671.86,449.46a36,36,0,0,0-29.43,38.32c3.21,39.75,7.49,79.27,12.73,118.09a261.82,261.82,0,0,0-110.32,0c5.25-38.81,9.53-78.33,12.73-118.09a36,36,0,0,0-29.42-38.32c-144-26.28-254-129.27-281.5-255.6,29.81,8.09,63.52,11.37,98.29,14.76,84.83,8.28,172.51,16.84,226.2,88.87A35.92,35.92,0,0,0,599.93,312H600a36,36,0,0,0,28.79-14.4c54.18-72.23,142-80.84,226.93-89.17,34.52-3.37,68-6.66,97.63-14.66-27.42,126.41-137.43,229.42-281.5,255.71Z" transform="translate(-60 -96.01)"/><path d="M655.16,605.87Z" transform="translate(-60 -96.01)"/><path class="cls-4" d="M467.6,635.11a205.67,205.67,0,0,1,77.24-29.24" transform="translate(-60 -96.01)"/><path class="cls-5" d="M1104,600c-63,0-105.39,21.22-142.8,40-34.39,17.19-64,32-109.2,32-47.63,0-77.2-15.91-119.61-36.9a265.24,265.24,0,0,0-264.79,0c-42.43,21-72,36.89-119.6,36.89-45.18,0-74.81-14.85-109.2-32C201.39,621.22,159,600,96,600a36,36,0,0,0,0,72c46,0,75.94,15,110.61,32.33C243.73,722.93,285.81,744,348,744c62.47,0,104.76-21.14,142.07-39.79,36-18,66.39-32.21,109.93-32.21,43.18,0,73.92,14.2,109.93,32.21C747.23,722.86,789.52,744,852,744c62.2,0,104.27-21.07,141.39-39.67C1028.06,687,1058,672,1104,672c4.75,0,36-12.93,36-36C1140,620.31,1125.34,604.31,1104,600Z" transform="translate(-60 -96.01)"/><path class="cls-3" d="M1888.5,460.82v81.53H1631.38V460.82ZM1694.86,353.66h105.41V773.54q0,21.27,6.55,32.47t17.33,15.29a66.92,66.92,0,0,0,23.87,4.07,105.65,105.65,0,0,0,18.2-1.45q8.29-1.45,12.67-2.62l17.76,82.4a235.59,235.59,0,0,1-24,6.41q-15.59,3.5-38,4.07-39.6,1.17-71.34-12.08t-50.23-41.2q-18.49-28-18.2-69.89Z" transform="translate(-60 -96.01)"/><path class="cls-3" d="M2105.42,917.1q-42.52,0-76.44-15.29t-53.58-45.28q-19.65-30-19.65-74,0-37.85,14-62.6a108.19,108.19,0,0,1,38.14-39.6,195.05,195.05,0,0,1,54.6-22.57,452.69,452.69,0,0,1,63-11.21q39.31-4.08,63.77-7.43T2225,628.68q11.21-7.12,11.21-22.27v-1.75q0-32.91-19.51-51t-56.2-18.05q-38.73,0-61.29,16.89t-30.43,39.89l-98.42-14q11.64-40.76,38.43-68.28t65.52-41.35Q2113,455,2159.87,455a279.28,279.28,0,0,1,64.35,7.57,183.08,183.08,0,0,1,58.53,24.9q26.49,17.32,42.66,47t16.16,74.26V908.07H2240.24V846.63h-3.5q-9.61,18.64-26.93,34.8t-43.39,25.91Q2140.37,917.09,2105.42,917.1Zm27.37-77.46q31.74,0,55-12.66t36-33.64a86.7,86.7,0,0,0,12.67-45.71V694.92q-4.95,4.1-16.74,7.58a251.43,251.43,0,0,1-26.35,6.11q-14.57,2.63-28.83,4.66t-24.75,3.49a184.31,184.31,0,0,0-42.22,10.49q-18.64,7.28-29.41,20.23t-10.78,33.34q0,29.13,21.26,44T2132.79,839.64Z" transform="translate(-60 -96.01)"/><path class="cls-3" d="M2500.55,397.34q-25.05,0-43-16.89T2439.69,340q0-23.58,18.06-40.32t43.09-16.75q25,0,42.95,16.89t17.91,40.48q0,23.58-17.91,40.32T2500.55,397.34Zm-52.7,510.73V460.82h105.4V908.07Z" transform="translate(-60 -96.01)"/><path class="cls-3" d="M2767,311.73V908.07H2661.57V311.73Z" transform="translate(-60 -96.01)"/><path class="cls-3" d="M3070.39,916.81q-67,0-114.87-29.41T2881.85,806q-25.77-52-25.77-119.82,0-68.13,26.2-120.4t74.11-81.54Q3004.29,455,3069.81,455q54.43,0,96.52,19.95t67.12,56.2q25,36.24,28.54,84.58H3161.24q-6.12-32.31-29-54t-61-21.69q-32.33,0-56.78,17.32t-38,49.65q-13.55,32.32-13.54,77.45,0,45.72,13.4,78.48t37.7,50.37q24.32,17.63,57.22,17.62,23.29,0,41.79-8.88a82.8,82.8,0,0,0,31-25.77q12.51-16.89,17.18-41.06H3262q-3.79,47.46-28,84t-65.81,57.07Q3126.58,916.8,3070.39,916.81Z" transform="translate(-60 -96.01)"/><path class="cls-3" d="M3543.84,916.81q-65.51,0-113.56-28.83t-74.39-80.66q-26.35-51.83-26.36-121.13t26.36-121.42q26.34-52.12,74.39-80.95T3543.84,455q65.52,0,113.56,28.83t74.4,80.95q26.35,52.13,26.35,121.42T3731.8,807.32q-26.36,51.84-74.4,80.66T3543.84,916.81Zm.59-84.45q35.52,0,59.4-19.65t35.67-52.85q11.79-33.2,11.79-74,0-41.05-11.79-74.4t-35.67-53.14q-23.88-19.8-59.4-19.8-36.41,0-60.42,19.8t-35.82,53.14q-11.79,33.35-11.79,74.4,0,40.77,11.79,74T3484,812.71Q3508,832.36,3544.43,832.36Z" transform="translate(-60 -96.01)"/><path class="cls-3" d="M3952.65,311.73V908.07H3847.24V311.73Z" transform="translate(-60 -96.01)"/><path class="cls-3" d="M4256.06,916.81q-65.52,0-113.56-28.83t-74.4-80.66q-26.35-51.83-26.35-121.13t26.35-121.42q26.36-52.12,74.4-80.95T4256.06,455q65.52,0,113.56,28.83t74.4,80.95q26.35,52.13,26.35,121.42T4444,807.32q-26.36,51.84-74.4,80.66T4256.06,916.81Zm.58-84.45q35.52,0,59.4-19.65t35.67-52.85q11.8-33.2,11.8-74,0-41.05-11.8-74.4T4316,558.36q-23.86-19.8-59.4-19.8-36.39,0-60.42,19.8t-35.81,53.14q-11.79,33.35-11.8,74.4,0,40.77,11.8,74t35.81,52.85Q4220.25,832.36,4256.64,832.36Z" transform="translate(-60 -96.01)"/><path class="cls-3" d="M4559.46,908.07V460.82h102.21v74.54h4.65q12.24-38.73,42.08-59.84t68.28-21.11q8.74,0,19.66.73a143.45,143.45,0,0,1,18.2,2.18v97q-6.71-2.32-21.11-4.22a214,214,0,0,0-27.81-1.89q-28.83,0-51.69,12.37a92.51,92.51,0,0,0-36,34.22q-13.1,21.84-13.1,50.37V908.07Z" transform="translate(-60 -96.01)"/></svg>